<?xml version="1.0" standalone="no"?>
<!DOCTYPE svg PUBLIC "-//W3C//DTD SVG 20010904//EN"
 "http://www.w3.org/TR/2001/REC-SVG-20010904/DTD/svg10.dtd">
<svg version="1.0" xmlns="http://www.w3.org/2000/svg"
 width="16.000000pt" height="16.000000pt" viewBox="0 0 16.000000 16.000000"
 preserveAspectRatio="xMidYMid meet">
<metadata>
Created by potrace 1.11, written by Peter Selinger 2001-2013
</metadata>
<g transform="translate(0.000000,16.000000) scale(0.001778,-0.001778)"
fill="#000000" stroke="none">
<path d="M1740 8814 c-534 -84 -998 -363 -1326 -796 -212 -282 -348 -611 -399
-970 -19 -135 -19 -441 0 -576 112 -785 648 -1437 1383 -1682 203 -68 338 -91
569 -97 283 -8 462 17 703 97 742 247 1281 909 1385 1698 17 131 20 389 5 512
-71 583 -366 1096 -830 1440 -235 174 -501 292 -800 356 -111 23 -152 27 -360
30 -175 2 -259 -1 -330 -12z"/>
<path d="M6163 8815 c-851 -130 -1536 -786 -1707 -1635 -42 -213 -51 -512 -21
-715 130 -878 767 -1560 1625 -1740 170 -36 485 -46 664 -21 881 124 1578 803
1738 1696 29 166 36 445 14 617 -32 246 -88 435 -196 658 -110 227 -235 402
-412 577 -279 276 -626 461 -1018 544 -110 23 -153 26 -360 29 -168 3 -261 0
-327 -10z"/>
<path d="M7680 4340 c-73 -170 -132 -311 -129 -312 2 -2 40 -21 83 -43 259
-130 477 -356 607 -629 46 -98 99 -243 99 -273 0 -10 7 -14 18 -11 9 2 158 38
331 78 l313 75 -6 44 c-16 117 -140 412 -244 578 -157 254 -383 484 -636 648
-91 60 -270 155 -291 155 -6 0 -71 -139 -145 -310z"/>
<path d="M1810 4289 c-214 -24 -448 -92 -648 -189 -635 -307 -1069 -921 -1153
-1634 -17 -146 -6 -493 20 -619 96 -465 288 -821 611 -1130 299 -286 658 -468
1059 -536 154 -26 480 -29 633 -6 900 135 1596 854 1724 1780 22 164 15 483
-15 641 -80 424 -260 777 -551 1078 -340 353 -763 562 -1245 616 -105 11 -327
11 -435 -1z"/>
<path d="M6210 4289 c-746 -95 -1371 -589 -1653 -1305 -41 -104 -89 -277 -112
-409 -25 -137 -31 -461 -11 -610 44 -332 157 -631 344 -911 325 -485 863 -817
1433 -884 159 -19 483 -9 624 20 221 44 486 147 670 260 525 322 882 871 970
1492 19 134 19 441 0 573 -21 149 -35 205 -50 205 -13 0 -648 -149 -652 -153
-1 -1 6 -34 14 -72 24 -104 24 -421 0 -535 -25 -115 -78 -272 -123 -362 -91
-183 -262 -385 -422 -501 -460 -331 -1054 -343 -1528 -31 -118 78 -292 251
-372 372 -111 167 -181 340 -218 537 -27 145 -25 393 4 532 107 501 460 902
918 1046 156 49 238 62 409 61 201 0 347 -28 516 -98 13 -6 40 49 148 299 73
169 130 312 128 319 -13 32 -329 124 -517 151 -119 16 -406 19 -520 4z"/>
</g>
</svg>
